<svg width="150" height="24" viewBox="0 0 150 24" fill="none" xmlns="http://www.w3.org/2000/svg">
<path d="M45.3721 15.8817H46.5118V12.0553H50.5927V11.1363H46.5118V8.24568H51.0155V7.32668H45.3721V15.8817Z" fill="black"/>
<path d="M52.4528 8.24568H55.4124V15.8817H56.5521V8.24568H59.5117V7.32668H52.4528V8.24568Z" fill="black"/>
<path d="M61.2706 15.8817H66.7854V14.9627H62.4104V7.32668H61.2706V15.8817Z" fill="black"/>
<path d="M72.5759 15.8817L73.5226 13.4589H77.3278L78.2745 15.8817H79.4693L76.0134 7.32668H74.8369L71.381 15.8817H72.5759ZM73.8811 12.5399L75.3884 8.68011H75.4619L76.9693 12.5399H73.8811Z" fill="black"/>
<path d="M86.0824 9.46543H87.1854C87.1348 8.17466 85.8251 7.20972 84.0052 7.20972C82.2037 7.20972 80.7883 8.16213 80.7883 9.59911C80.7883 10.752 81.7074 11.4371 83.178 11.8214L84.3361 12.1222C85.3288 12.3728 86.2111 12.6903 86.2111 13.5424C86.2111 14.4781 85.2185 15.0964 83.9133 15.0964C82.792 15.0964 81.7993 14.6452 81.7074 13.6761H80.5309C80.6412 15.0797 81.8912 16.0321 83.9133 16.0321C86.0824 16.0321 87.3141 14.946 87.3141 13.5591C87.3141 11.9551 85.6413 11.4371 84.667 11.2032L83.7111 10.9692C83.0126 10.8022 81.8912 10.468 81.8912 9.54898C81.8912 8.73024 82.7184 8.12871 83.9685 8.12871C85.1082 8.12871 85.9722 8.62163 86.0824 9.46543Z" fill="black"/>
<path d="M94.335 9.46543H95.438C95.3874 8.17466 94.0777 7.20972 92.2578 7.20972C90.4563 7.20972 89.0409 8.16213 89.0409 9.59911C89.0409 10.752 89.96 11.4371 91.4306 11.8214L92.5887 12.1222C93.5814 12.3728 94.4637 12.6903 94.4637 13.5424C94.4637 14.4781 93.4711 15.0964 92.1659 15.0964C91.0446 15.0964 90.0519 14.6452 89.96 13.6761H88.7835C88.8938 15.0797 90.1438 16.0321 92.1659 16.0321C94.335 16.0321 95.5667 14.946 95.5667 13.5591C95.5667 11.9551 93.8939 11.4371 92.9196 11.2032L91.9637 10.9692C91.2652 10.8022 90.1438 10.468 90.1438 9.54898C90.1438 8.73024 90.971 8.12871 92.2211 8.12871C93.3608 8.12871 94.2248 8.62163 94.335 9.46543Z" fill="black"/>
<path d="M98.5803 7.32668H97.4405V15.8817H98.5803V7.32668Z" fill="black"/>
<path d="M106.013 9.46543H107.115C107.065 8.17466 105.755 7.20972 103.935 7.20972C102.134 7.20972 100.718 8.16213 100.718 9.59911C100.718 10.752 101.637 11.4371 103.108 11.8214L104.266 12.1222C105.259 12.3728 106.141 12.6903 106.141 13.5424C106.141 14.4781 105.149 15.0964 103.843 15.0964C102.722 15.0964 101.729 14.6452 101.638 13.6761H100.461C100.571 15.0797 101.821 16.0321 103.843 16.0321C106.013 16.0321 107.244 14.946 107.244 13.5591C107.244 11.9551 105.571 11.4371 104.597 11.2032L103.641 10.9692C102.943 10.8022 101.821 10.468 101.821 9.54898C101.821 8.73024 102.649 8.12871 103.899 8.12871C105.038 8.12871 105.902 8.62163 106.013 9.46543Z" fill="black"/>
<path d="M108.603 8.24568H111.563V15.8817H112.703V8.24568H115.662V7.32668H108.603V8.24568Z" fill="black"/>
<path d="M116.708 15.8817L117.654 13.4589H121.46L122.406 15.8817H123.601L120.145 7.32668H118.969L115.513 15.8817H116.708ZM118.013 12.5399L119.52 8.68011H119.594L121.101 12.5399H118.013Z" fill="black"/>
<path d="M132.53 7.32668H131.409V14.0604H131.317L126.17 7.32668H125.067V15.8817H126.207V9.16467H126.299L131.428 15.8817H132.53V7.32668Z" fill="black"/>
<path d="M142.385 10.0001C142.035 8.24568 140.491 7.20972 138.598 7.20972C136.19 7.20972 134.443 8.89733 134.443 11.6042C134.443 14.311 136.19 15.9987 138.598 15.9987C140.491 15.9987 142.035 14.9627 142.385 13.2083H141.245C140.969 14.3946 139.848 15.0295 138.598 15.0295C136.888 15.0295 135.546 13.8265 135.546 11.6042C135.546 9.38189 136.888 8.17884 138.598 8.17884C139.848 8.17884 140.969 8.81378 141.245 10.0001H142.385Z" fill="black"/>
<path d="M144.226 15.8817H149.98V14.9627H145.366V12.0553H149.612V11.1363H145.366V8.24568H149.907V7.32668H144.226V15.8817Z" fill="black"/>
<rect y="8.47998" width="4.62541" height="13.1053" rx="2.3127" fill="#404E4D"/>
<rect x="8.22314" y="2.56958" width="4.62541" height="20.8143" rx="2.3127" fill="#9AAD7D"/>
<rect x="24.4116" width="4.62541" height="18.7586" rx="2.3127" fill="#9CA585"/>
<rect x="32.3779" y="7.19507" width="4.62541" height="16.1889" rx="2.3127" fill="#C6CA8B"/>
<rect x="16.189" y="4.62549" width="4.62541" height="14.1332" rx="2.3127" fill="#647065"/>
</svg>
