<svg width="1200" height="630" viewBox="0 0 1200 630" fill="none" xmlns="http://www.w3.org/2000/svg">
<rect width="1200" height="630" fill="white"/>
<path d="M403.553 71.4842H405.518V64.8866H412.554V63.302H405.518V58.3178H413.283V56.7332H403.553V71.4842Z" fill="black"/>
<path d="M415.762 58.3178H420.865V71.4842H422.83V58.3178H427.933V56.7332H415.762V58.3178Z" fill="black"/>
<path d="M430.966 71.4842H440.475V69.8996H432.931V56.7332H430.966V71.4842Z" fill="black"/>
<path d="M450.459 71.4842L452.091 67.3067H458.652L460.285 71.4842H462.345L456.386 56.7332H454.358L448.399 71.4842H450.459ZM452.709 65.7221L455.309 59.0668H455.435L458.034 65.7221H452.709Z" fill="black"/>
<path d="M473.748 60.4209H475.65C475.562 58.1953 473.304 56.5315 470.166 56.5315C467.06 56.5315 464.619 58.1737 464.619 60.6514C464.619 62.6393 466.204 63.8206 468.74 64.4832L470.737 65.0018C472.448 65.434 473.97 65.9814 473.97 67.4507C473.97 69.0641 472.258 70.1301 470.008 70.1301C468.074 70.1301 466.363 69.3522 466.204 67.6812H464.176C464.366 70.1013 466.521 71.7435 470.008 71.7435C473.748 71.7435 475.871 69.8708 475.871 67.4795C475.871 64.7137 472.987 63.8206 471.307 63.4172L469.659 63.0139C468.454 62.7258 466.521 62.1496 466.521 60.565C466.521 59.1533 467.947 58.1161 470.103 58.1161C472.068 58.1161 473.558 58.966 473.748 60.4209Z" fill="black"/>
<path d="M487.977 60.4209H489.879C489.792 58.1953 487.534 56.5315 484.396 56.5315C481.289 56.5315 478.849 58.1737 478.849 60.6514C478.849 62.6393 480.434 63.8206 482.969 64.4832L484.966 65.0018C486.678 65.434 488.199 65.9814 488.199 67.4507C488.199 69.0641 486.488 70.1301 484.237 70.1301C482.304 70.1301 480.592 69.3522 480.434 67.6812H478.405C478.595 70.1013 480.751 71.7435 484.237 71.7435C487.977 71.7435 490.101 69.8708 490.101 67.4795C490.101 64.7137 487.217 63.8206 485.537 63.4172L483.889 63.0139C482.684 62.7258 480.751 62.1496 480.751 60.565C480.751 59.1533 482.177 58.1161 484.332 58.1161C486.297 58.1161 487.787 58.966 487.977 60.4209Z" fill="black"/>
<path d="M495.297 56.7332H493.332V71.4842H495.297V56.7332Z" fill="black"/>
<path d="M508.112 60.4209H510.014C509.927 58.1953 507.669 56.5315 504.531 56.5315C501.424 56.5315 498.984 58.1737 498.984 60.6514C498.984 62.6393 500.569 63.8206 503.104 64.4832L505.101 65.0018C506.813 65.434 508.334 65.9814 508.334 67.4507C508.334 69.0641 506.623 70.1301 504.372 70.1301C502.439 70.1301 500.727 69.3522 500.569 67.6812H498.54C498.73 70.1013 500.886 71.7435 504.372 71.7435C508.112 71.7435 510.236 69.8708 510.236 67.4795C510.236 64.7137 507.352 63.8206 505.672 63.4172L504.023 63.0139C502.819 62.7258 500.886 62.1496 500.886 60.565C500.886 59.1533 502.312 58.1161 504.467 58.1161C506.432 58.1161 507.922 58.966 508.112 60.4209Z" fill="black"/>
<path d="M512.579 58.3178H517.683V71.4842H519.648V58.3178H524.751V56.7332H512.579V58.3178Z" fill="black"/>
<path d="M526.553 71.4842L528.186 67.3067H534.747L536.379 71.4842H538.44L532.481 56.7332H530.452L524.493 71.4842H526.553ZM528.804 65.7221L531.403 59.0668H531.53L534.129 65.7221H528.804Z" fill="black"/>
<path d="M553.836 56.7332H551.902V68.3438H551.744L542.869 56.7332H540.967V71.4842H542.932V59.9023H543.091L551.934 71.4842H553.836V56.7332Z" fill="black"/>
<path d="M570.827 61.3429C570.225 58.3178 567.562 56.5315 564.298 56.5315C560.145 56.5315 557.134 59.4414 557.134 64.1087C557.134 68.776 560.145 71.6859 564.298 71.6859C567.562 71.6859 570.225 69.8996 570.827 66.8745H568.862C568.386 68.92 566.453 70.0148 564.298 70.0148C561.35 70.0148 559.036 67.9405 559.036 64.1087C559.036 60.2769 561.35 58.2025 564.298 58.2025C566.453 58.2025 568.386 59.2973 568.862 61.3429H570.827Z" fill="black"/>
<path d="M574.003 71.4842H583.923V69.8996H575.968V64.8866H583.29V63.302H575.968V58.3178H583.797V56.7332H574.003V71.4842Z" fill="black"/>
<rect x="325.32" y="58.7216" width="7.97537" height="22.5969" rx="3.98769" fill="#404E4D"/>
<rect x="339.499" y="48.531" width="7.97537" height="35.8892" rx="3.98769" fill="#9AAD7D"/>
<rect x="367.412" y="44.1001" width="7.97537" height="32.3446" rx="3.98769" fill="#9CA585"/>
<rect x="381.148" y="56.5063" width="7.97537" height="27.9138" rx="3.98769" fill="#C6CA8B"/>
<rect x="353.234" y="52.0753" width="7.97537" height="24.3692" rx="3.98769" fill="#647065"/>
<line x1="424.86" y1="546.08" x2="325.32" y2="546.08" stroke="#C6CA8B"/>
<path d="M332.981 275.175V309.357H329.86V275.175H332.981ZM340.725 291.264V294.068H330.761V291.264H340.725ZM369.265 292.249C369.265 295.81 368.631 298.909 367.363 301.546C366.094 304.172 364.347 306.208 362.122 307.654C359.908 309.09 357.36 309.807 354.478 309.807C351.596 309.807 349.042 309.09 346.817 307.654C344.603 306.208 342.861 304.172 341.593 301.546C340.336 298.909 339.707 295.81 339.707 292.249C339.707 288.689 340.336 285.595 341.593 282.969C342.861 280.332 344.608 278.296 346.834 276.861C349.059 275.414 351.607 274.691 354.478 274.691C357.36 274.691 359.908 275.414 362.122 276.861C364.347 278.296 366.094 280.332 367.363 282.969C368.631 285.595 369.265 288.689 369.265 292.249ZM366.228 292.249C366.228 289.189 365.716 286.569 364.692 284.388C363.669 282.196 362.272 280.521 360.503 279.364C358.734 278.207 356.725 277.628 354.478 277.628C352.241 277.628 350.239 278.207 348.469 279.364C346.7 280.521 345.298 282.19 344.263 284.371C343.24 286.552 342.728 289.178 342.728 292.249C342.728 295.309 343.24 297.929 344.263 300.11C345.287 302.291 346.683 303.966 348.453 305.134C350.222 306.291 352.23 306.87 354.478 306.87C356.725 306.87 358.734 306.291 360.503 305.134C362.283 303.977 363.685 302.308 364.709 300.127C365.733 297.935 366.239 295.309 366.228 292.249ZM376.196 318.954V283.704H379.084V288.594H379.434C379.79 287.826 380.28 287.042 380.903 286.241C381.526 285.428 382.349 284.744 383.373 284.188C384.408 283.631 385.71 283.353 387.279 283.353C389.393 283.353 391.24 283.91 392.82 285.022C394.411 286.124 395.646 287.67 396.525 289.662C397.415 291.643 397.86 293.952 397.86 296.589C397.86 299.237 397.415 301.557 396.525 303.549C395.646 305.54 394.411 307.092 392.82 308.205C391.24 309.318 389.404 309.874 387.312 309.874C385.765 309.874 384.469 309.596 383.423 309.04C382.388 308.483 381.548 307.799 380.903 306.987C380.269 306.163 379.779 305.362 379.434 304.583H379.167V318.954H376.196ZM379.134 296.539C379.134 298.608 379.44 300.444 380.052 302.046C380.675 303.638 381.565 304.889 382.722 305.802C383.89 306.703 385.304 307.154 386.961 307.154C388.664 307.154 390.099 306.686 391.268 305.752C392.447 304.806 393.343 303.532 393.955 301.93C394.578 300.327 394.889 298.53 394.889 296.539C394.889 294.569 394.583 292.794 393.971 291.214C393.371 289.634 392.48 288.383 391.301 287.459C390.121 286.524 388.675 286.057 386.961 286.057C385.292 286.057 383.874 286.508 382.705 287.409C381.537 288.299 380.647 289.534 380.035 291.114C379.434 292.683 379.134 294.491 379.134 296.539ZM407.349 305.117L420.885 283.704H424.44V309.34H421.469V287.926L407.983 309.34H404.378V283.704H407.349V305.117ZM429.246 316.634V306.536H431.466C432.023 305.913 432.507 305.24 432.918 304.517C433.33 303.793 433.686 302.97 433.986 302.046C434.298 301.112 434.559 300.027 434.771 298.792C434.982 297.546 435.16 296.094 435.305 294.436L436.24 283.704H451.411V306.536H455.217V316.634H452.246V309.34H432.234V316.634H429.246ZM434.888 306.536H448.44V286.508H439.01L438.242 294.436C437.975 297.128 437.597 299.476 437.108 301.479C436.618 303.482 435.878 305.168 434.888 306.536ZM463.85 305.117L477.386 283.704H480.941V309.34H477.97V287.926L464.484 309.34H460.879V283.704H463.85V305.117ZM507.695 283.704V309.34H504.708V283.704H507.695ZM506.594 296.372V299.209C505.581 299.576 504.619 299.888 503.706 300.144C502.794 300.389 501.876 300.578 500.952 300.711C500.04 300.845 499.066 300.911 498.031 300.911C495.15 300.9 492.885 300.16 491.239 298.692C489.603 297.223 488.785 294.986 488.785 291.982V283.62H491.756V291.982C491.756 293.406 492.012 294.569 492.524 295.47C493.035 296.372 493.759 297.039 494.693 297.473C495.628 297.896 496.73 298.107 497.998 298.107C499.556 298.107 501.025 297.952 502.404 297.64C503.784 297.329 505.181 296.906 506.594 296.372ZM532.898 295.137V297.941H517.826V295.137H532.898ZM518.561 283.704V309.34H515.59V283.704H518.561ZM535.084 283.704V309.34H532.113V283.704H535.084ZM545.962 305.117L559.498 283.704H563.053V309.34H560.082V287.926L546.596 309.34H542.991V283.704H545.962V305.117ZM573.868 305.117L587.404 283.704H590.959V309.34H587.988V287.926L574.502 309.34H570.897V283.704H573.868V305.117ZM583.999 275.158H586.803C586.803 276.749 586.275 278.04 585.218 279.03C584.172 280.021 582.742 280.516 580.928 280.516C579.137 280.516 577.718 280.021 576.672 279.03C575.626 278.04 575.103 276.749 575.103 275.158H577.907C577.907 276.026 578.141 276.761 578.608 277.361C579.087 277.951 579.86 278.246 580.928 278.246C581.996 278.246 582.775 277.951 583.265 277.361C583.754 276.761 583.999 276.026 583.999 275.158ZM612.022 309.34V283.704H614.993V295.237H617.78L627.311 283.704H631.149L620.868 296.038L631.383 309.34H627.544L618.698 298.041H614.993V309.34H612.022ZM645.165 309.874C642.951 309.874 640.993 309.312 639.29 308.188C637.599 307.065 636.275 305.512 635.318 303.532C634.361 301.54 633.883 299.242 633.883 296.639C633.883 294.013 634.361 291.704 635.318 289.712C636.275 287.709 637.599 286.152 639.29 285.039C640.993 283.915 642.951 283.353 645.165 283.353C647.379 283.353 649.332 283.915 651.023 285.039C652.715 286.163 654.039 287.721 654.996 289.712C655.964 291.704 656.448 294.013 656.448 296.639C656.448 299.242 655.969 301.54 655.012 303.532C654.056 305.512 652.726 307.065 651.023 308.188C649.332 309.312 647.379 309.874 645.165 309.874ZM645.165 307.154C646.945 307.154 648.453 306.675 649.688 305.718C650.923 304.761 651.858 303.487 652.492 301.896C653.138 300.305 653.46 298.553 653.46 296.639C653.46 294.725 653.138 292.967 652.492 291.365C651.858 289.762 650.923 288.477 649.688 287.509C648.453 286.541 646.945 286.057 645.165 286.057C643.396 286.057 641.888 286.541 640.642 287.509C639.407 288.477 638.467 289.762 637.821 291.365C637.187 292.967 636.87 294.725 636.87 296.639C636.87 298.553 637.187 300.305 637.821 301.896C638.467 303.487 639.407 304.761 640.642 305.718C641.877 306.675 643.385 307.154 645.165 307.154ZM680.277 295.137V297.941H665.206V295.137H680.277ZM665.94 283.704V309.34H662.97V283.704H665.94ZM682.464 283.704V309.34H679.493V283.704H682.464ZM700.385 309.874C698.093 309.874 696.096 309.301 694.393 308.155C692.702 307.009 691.389 305.44 690.454 303.448C689.52 301.457 689.052 299.187 689.052 296.639C689.052 294.068 689.525 291.782 690.471 289.779C691.428 287.776 692.752 286.207 694.443 285.072C696.135 283.926 698.099 283.353 700.335 283.353C702.049 283.353 703.601 283.687 704.992 284.355C706.383 285.011 707.529 285.94 708.43 287.142C709.342 288.333 709.915 289.723 710.149 291.315H707.145C706.833 289.868 706.082 288.633 704.892 287.609C703.712 286.574 702.21 286.057 700.385 286.057C698.75 286.057 697.303 286.502 696.046 287.392C694.788 288.271 693.804 289.501 693.091 291.081C692.39 292.65 692.04 294.469 692.04 296.539C692.04 298.619 692.385 300.461 693.075 302.063C693.765 303.654 694.733 304.9 695.979 305.802C697.236 306.703 698.705 307.154 700.385 307.154C701.52 307.154 702.555 306.942 703.49 306.519C704.435 306.085 705.225 305.473 705.86 304.683C706.505 303.893 706.939 302.953 707.161 301.863H710.166C709.943 303.409 709.392 304.789 708.513 306.002C707.645 307.204 706.516 308.15 705.125 308.839C703.745 309.529 702.165 309.874 700.385 309.874ZM723.693 309.924C722.147 309.924 720.733 309.624 719.454 309.023C718.174 308.411 717.156 307.532 716.4 306.386C715.643 305.229 715.265 303.827 715.265 302.18C715.265 300.911 715.504 299.843 715.982 298.975C716.461 298.107 717.139 297.395 718.019 296.839C718.898 296.283 719.938 295.843 721.14 295.52C722.341 295.198 723.665 294.947 725.112 294.769C726.547 294.591 727.76 294.436 728.75 294.302C729.752 294.169 730.514 293.957 731.037 293.668C731.56 293.379 731.821 292.911 731.821 292.266V291.665C731.821 289.918 731.298 288.544 730.253 287.543C729.218 286.53 727.727 286.024 725.78 286.024C723.932 286.024 722.425 286.43 721.256 287.242C720.099 288.054 719.287 289.011 718.82 290.113L715.999 289.095C716.578 287.693 717.379 286.574 718.402 285.74C719.426 284.894 720.572 284.288 721.841 283.921C723.109 283.542 724.394 283.353 725.696 283.353C726.675 283.353 727.693 283.481 728.75 283.737C729.819 283.993 730.809 284.438 731.721 285.072C732.634 285.695 733.374 286.569 733.941 287.693C734.509 288.805 734.792 290.219 734.792 291.932V309.34H731.821V305.284H731.638C731.282 306.041 730.753 306.775 730.052 307.487C729.351 308.2 728.472 308.784 727.415 309.24C726.358 309.696 725.117 309.924 723.693 309.924ZM724.094 307.204C725.674 307.204 727.042 306.853 728.2 306.152C729.357 305.451 730.247 304.522 730.87 303.365C731.504 302.197 731.821 300.911 731.821 299.509V295.804C731.599 296.016 731.226 296.205 730.703 296.372C730.191 296.539 729.596 296.689 728.917 296.822C728.25 296.945 727.582 297.05 726.914 297.139C726.247 297.228 725.646 297.306 725.112 297.373C723.665 297.551 722.43 297.829 721.407 298.208C720.383 298.586 719.599 299.109 719.053 299.777C718.508 300.433 718.235 301.279 718.235 302.313C718.235 303.871 718.792 305.078 719.905 305.935C721.017 306.781 722.414 307.204 724.094 307.204ZM740.175 309.34V306.536H740.976C741.888 306.536 742.623 306.369 743.179 306.035C743.747 305.69 744.186 305.112 744.498 304.3C744.809 303.487 745.043 302.38 745.199 300.978C745.355 299.576 745.477 297.818 745.566 295.704L746.117 283.704H762.406V309.34H759.419V286.508H748.937L748.453 296.705C748.353 298.786 748.186 300.617 747.953 302.197C747.73 303.777 747.363 305.095 746.851 306.152C746.35 307.209 745.649 308.005 744.748 308.539C743.858 309.073 742.69 309.34 741.243 309.34H740.175ZM766.692 286.508V283.704H786.72V286.508H778.241V309.34H775.271V286.508H766.692ZM793.033 309.34V283.704H796.021V309.34H793.033ZM794.552 279.297C793.94 279.297 793.417 279.092 792.983 278.68C792.549 278.257 792.332 277.751 792.332 277.161C792.332 276.571 792.549 276.071 792.983 275.659C793.417 275.236 793.94 275.025 794.552 275.025C795.164 275.025 795.687 275.236 796.121 275.659C796.555 276.071 796.772 276.571 796.772 277.161C796.772 277.751 796.555 278.257 796.121 278.68C795.687 279.092 795.164 279.297 794.552 279.297ZM821.186 295.137V297.941H806.114V295.137H821.186ZM806.849 283.704V309.34H803.878V283.704H806.849ZM823.372 283.704V309.34H820.401V283.704H823.372ZM846.517 283.704V286.508H834.25V309.34H831.279V283.704H846.517ZM327.59 359.797H330.744C330.833 361.166 331.423 362.234 332.513 363.002C333.604 363.77 335.039 364.154 336.819 364.154C338.667 364.154 340.191 363.742 341.393 362.919C342.594 362.084 343.195 360.871 343.195 359.28C343.195 358.312 342.967 357.472 342.511 356.76C342.066 356.048 341.454 355.491 340.675 355.091C339.907 354.679 339.034 354.468 338.055 354.457H333.582V351.736H338.004C339.529 351.647 340.686 351.235 341.476 350.501C342.266 349.755 342.661 348.782 342.661 347.58C342.661 346.212 342.177 345.116 341.209 344.292C340.241 343.458 338.928 343.04 337.27 343.04C335.59 343.04 334.194 343.452 333.081 344.275C331.968 345.099 331.378 346.156 331.312 347.447H328.191C328.246 346.056 328.663 344.832 329.442 343.775C330.221 342.707 331.273 341.872 332.597 341.271C333.932 340.67 335.445 340.37 337.137 340.37C338.872 340.37 340.38 340.681 341.66 341.305C342.939 341.928 343.93 342.779 344.631 343.858C345.332 344.926 345.682 346.139 345.682 347.497C345.682 348.91 345.293 350.073 344.514 350.985C343.746 351.886 342.761 352.52 341.56 352.888V353.138C342.472 353.238 343.273 353.572 343.963 354.139C344.664 354.707 345.215 355.436 345.615 356.326C346.016 357.216 346.216 358.201 346.216 359.28C346.216 360.793 345.821 362.123 345.031 363.269C344.241 364.404 343.14 365.289 341.726 365.923C340.324 366.557 338.705 366.874 336.87 366.874C335.1 366.874 333.526 366.579 332.146 365.99C330.766 365.389 329.67 364.56 328.858 363.503C328.057 362.435 327.634 361.199 327.59 359.797ZM365.548 366.34V340.704H368.519V352.237H371.306L380.836 340.704H384.675L374.394 353.038L384.909 366.34H381.07L372.224 355.041H368.519V366.34H365.548ZM398.691 366.874C396.476 366.874 394.518 366.312 392.816 365.188C391.124 364.065 389.8 362.512 388.843 360.532C387.886 358.54 387.408 356.242 387.408 353.639C387.408 351.013 387.886 348.704 388.843 346.712C389.8 344.709 391.124 343.152 392.816 342.039C394.518 340.915 396.476 340.353 398.691 340.353C400.905 340.353 402.858 340.915 404.549 342.039C406.24 343.163 407.564 344.721 408.521 346.712C409.489 348.704 409.973 351.013 409.973 353.639C409.973 356.242 409.495 358.54 408.538 360.532C407.581 362.512 406.251 364.065 404.549 365.188C402.858 366.312 400.905 366.874 398.691 366.874ZM398.691 364.154C400.471 364.154 401.979 363.675 403.214 362.718C404.449 361.761 405.383 360.487 406.018 358.896C406.663 357.305 406.986 355.553 406.986 353.639C406.986 351.725 406.663 349.967 406.018 348.365C405.383 346.762 404.449 345.477 403.214 344.509C401.979 343.541 400.471 343.057 398.691 343.057C396.921 343.057 395.414 343.541 394.167 344.509C392.932 345.477 391.992 346.762 391.347 348.365C390.713 349.967 390.395 351.725 390.395 353.639C390.395 355.553 390.713 357.305 391.347 358.896C391.992 360.487 392.932 361.761 394.167 362.718C395.403 363.675 396.91 364.154 398.691 364.154ZM416.495 375.954V340.704H419.382V345.594H419.733C420.089 344.826 420.579 344.042 421.202 343.241C421.825 342.428 422.648 341.744 423.672 341.188C424.707 340.631 426.008 340.353 427.577 340.353C429.691 340.353 431.539 340.91 433.119 342.022C434.71 343.124 435.945 344.67 436.824 346.662C437.714 348.643 438.159 350.952 438.159 353.589C438.159 356.237 437.714 358.557 436.824 360.549C435.945 362.54 434.71 364.092 433.119 365.205C431.539 366.318 429.703 366.874 427.611 366.874C426.064 366.874 424.768 366.596 423.722 366.04C422.687 365.483 421.847 364.799 421.202 363.987C420.567 363.163 420.078 362.362 419.733 361.583H419.466V375.954H416.495ZM419.432 353.539C419.432 355.608 419.738 357.444 420.35 359.046C420.974 360.638 421.864 361.889 423.021 362.802C424.189 363.703 425.602 364.154 427.26 364.154C428.963 364.154 430.398 363.686 431.566 362.752C432.746 361.806 433.642 360.532 434.254 358.93C434.877 357.327 435.188 355.53 435.188 353.539C435.188 351.569 434.882 349.794 434.27 348.214C433.669 346.634 432.779 345.383 431.6 344.459C430.42 343.524 428.974 343.057 427.26 343.057C425.591 343.057 424.173 343.508 423.004 344.409C421.836 345.299 420.946 346.534 420.334 348.114C419.733 349.683 419.432 351.491 419.432 353.539ZM444.71 366.34V340.704H464.121V366.34H461.133V343.508H447.698V366.34H444.71ZM481.95 366.874C479.736 366.874 477.778 366.312 476.075 365.188C474.384 364.065 473.06 362.512 472.103 360.532C471.146 358.54 470.668 356.242 470.668 353.639C470.668 351.013 471.146 348.704 472.103 346.712C473.06 344.709 474.384 343.152 476.075 342.039C477.778 340.915 479.736 340.353 481.95 340.353C484.165 340.353 486.117 340.915 487.809 342.039C489.5 343.163 490.824 344.721 491.781 346.712C492.749 348.704 493.233 351.013 493.233 353.639C493.233 356.242 492.755 358.54 491.798 360.532C490.841 362.512 489.511 364.065 487.809 365.188C486.117 366.312 484.165 366.874 481.95 366.874ZM481.95 364.154C483.731 364.154 485.238 363.675 486.473 362.718C487.708 361.761 488.643 360.487 489.277 358.896C489.923 357.305 490.245 355.553 490.245 353.639C490.245 351.725 489.923 349.967 489.277 348.365C488.643 346.762 487.708 345.477 486.473 344.509C485.238 343.541 483.731 343.057 481.95 343.057C480.181 343.057 478.673 343.541 477.427 344.509C476.192 345.477 475.252 346.762 474.607 348.365C473.972 349.967 473.655 351.725 473.655 353.639C473.655 355.553 473.972 357.305 474.607 358.896C475.252 360.487 476.192 361.761 477.427 362.718C478.662 363.675 480.17 364.154 481.95 364.154ZM499.755 375.954V340.704H502.642V345.594H502.993C503.349 344.826 503.838 344.042 504.461 343.241C505.085 342.428 505.908 341.744 506.932 341.188C507.966 340.631 509.268 340.353 510.837 340.353C512.951 340.353 514.798 340.91 516.378 342.022C517.969 343.124 519.205 344.67 520.084 346.662C520.974 348.643 521.419 350.952 521.419 353.589C521.419 356.237 520.974 358.557 520.084 360.549C519.205 362.54 517.969 364.092 516.378 365.205C514.798 366.318 512.962 366.874 510.871 366.874C509.324 366.874 508.028 366.596 506.982 366.04C505.947 365.483 505.107 364.799 504.461 363.987C503.827 363.163 503.338 362.362 502.993 361.583H502.726V375.954H499.755ZM502.692 353.539C502.692 355.608 502.998 357.444 503.61 359.046C504.233 360.638 505.123 361.889 506.281 362.802C507.449 363.703 508.862 364.154 510.52 364.154C512.222 364.154 513.658 363.686 514.826 362.752C516.006 361.806 516.901 360.532 517.513 358.93C518.136 357.327 518.448 355.53 518.448 353.539C518.448 351.569 518.142 349.794 517.53 348.214C516.929 346.634 516.039 345.383 514.86 344.459C513.68 343.524 512.234 343.057 510.52 343.057C508.851 343.057 507.432 343.508 506.264 344.409C505.096 345.299 504.206 346.534 503.594 348.114C502.993 349.683 502.692 351.491 502.692 353.539ZM535.097 366.924C533.55 366.924 532.137 366.624 530.857 366.023C529.578 365.411 528.559 364.532 527.803 363.386C527.046 362.229 526.668 360.827 526.668 359.18C526.668 357.911 526.907 356.843 527.386 355.975C527.864 355.107 528.543 354.395 529.422 353.839C530.301 353.283 531.341 352.843 532.543 352.52C533.745 352.198 535.069 351.947 536.515 351.769C537.951 351.591 539.163 351.436 540.154 351.302C541.155 351.169 541.917 350.957 542.44 350.668C542.963 350.379 543.225 349.911 543.225 349.266V348.665C543.225 346.918 542.702 345.544 541.656 344.543C540.621 343.53 539.13 343.024 537.183 343.024C535.336 343.024 533.828 343.43 532.66 344.242C531.503 345.054 530.69 346.011 530.223 347.113L527.402 346.095C527.981 344.693 528.782 343.574 529.806 342.74C530.829 341.894 531.975 341.288 533.244 340.921C534.512 340.542 535.798 340.353 537.099 340.353C538.079 340.353 539.097 340.481 540.154 340.737C541.222 340.993 542.212 341.438 543.125 342.072C544.037 342.695 544.777 343.569 545.344 344.693C545.912 345.805 546.196 347.219 546.196 348.932V366.34H543.225V362.284H543.041C542.685 363.041 542.157 363.775 541.456 364.487C540.755 365.2 539.876 365.784 538.818 366.24C537.761 366.696 536.521 366.924 535.097 366.924ZM535.497 364.204C537.077 364.204 538.446 363.853 539.603 363.152C540.76 362.451 541.65 361.522 542.273 360.365C542.908 359.197 543.225 357.911 543.225 356.509V352.804C543.002 353.016 542.629 353.205 542.106 353.372C541.595 353.539 540.999 353.689 540.321 353.822C539.653 353.945 538.985 354.05 538.318 354.139C537.65 354.228 537.049 354.306 536.515 354.373C535.069 354.551 533.834 354.829 532.81 355.208C531.786 355.586 531.002 356.109 530.457 356.777C529.911 357.433 529.639 358.279 529.639 359.313C529.639 360.871 530.195 362.078 531.308 362.935C532.421 363.781 533.817 364.204 535.497 364.204ZM550.51 343.508V340.704H570.538V343.508H562.06V366.34H559.089V343.508H550.51ZM579.789 362.117L593.325 340.704H596.88V366.34H593.909V344.926L580.423 366.34H576.818V340.704H579.789V362.117ZM604.724 366.34V340.704H614.822C617.548 340.704 619.696 341.293 621.265 342.473C622.845 343.652 623.635 345.243 623.635 347.246C623.635 348.771 623.195 349.989 622.316 350.902C621.437 351.814 620.258 352.459 618.778 352.838C619.768 353.005 620.686 353.366 621.532 353.922C622.388 354.479 623.084 355.213 623.618 356.126C624.152 357.038 624.419 358.128 624.419 359.397C624.419 360.732 624.085 361.923 623.418 362.969C622.75 364.015 621.81 364.838 620.597 365.439C619.384 366.04 617.949 366.34 616.291 366.34H604.724ZM607.562 363.586H616.291C617.86 363.586 619.1 363.186 620.013 362.384C620.925 361.572 621.381 360.493 621.381 359.147C621.381 357.711 620.947 356.565 620.08 355.708C619.223 354.84 618.071 354.406 616.625 354.406H607.562V363.586ZM607.562 351.769H615.006C616.163 351.769 617.164 351.591 618.01 351.235C618.856 350.879 619.507 350.379 619.963 349.733C620.43 349.077 620.658 348.309 620.647 347.43C620.647 346.173 620.135 345.199 619.112 344.509C618.088 343.808 616.658 343.458 614.822 343.458H607.562V351.769ZM648.24 352.137V354.941H633.169V352.137H648.24ZM633.903 340.704V366.34H630.932V340.704H633.903ZM650.427 340.704V366.34H647.456V340.704H650.427ZM668.298 366.874C666.084 366.874 664.125 366.312 662.423 365.188C660.732 364.065 659.408 362.512 658.451 360.532C657.494 358.54 657.015 356.242 657.015 353.639C657.015 351.013 657.494 348.704 658.451 346.712C659.408 344.709 660.732 343.152 662.423 342.039C664.125 340.915 666.084 340.353 668.298 340.353C670.512 340.353 672.465 340.915 674.156 342.039C675.848 343.163 677.172 344.721 678.129 346.712C679.097 348.704 679.581 351.013 679.581 353.639C679.581 356.242 679.102 358.54 678.145 360.532C677.188 362.512 675.859 364.065 674.156 365.188C672.465 366.312 670.512 366.874 668.298 366.874ZM668.298 364.154C670.078 364.154 671.586 363.675 672.821 362.718C674.056 361.761 674.991 360.487 675.625 358.896C676.27 357.305 676.593 355.553 676.593 353.639C676.593 351.725 676.27 349.967 675.625 348.365C674.991 346.762 674.056 345.477 672.821 344.509C671.586 343.541 670.078 343.057 668.298 343.057C666.529 343.057 665.021 343.541 663.775 344.509C662.54 345.477 661.6 346.762 660.954 348.365C660.32 349.967 660.003 351.725 660.003 353.639C660.003 355.553 660.32 357.305 660.954 358.896C661.6 360.487 662.54 361.761 663.775 362.718C665.01 363.675 666.518 364.154 668.298 364.154ZM701.341 340.704V343.508H689.073V366.34H686.102V340.704H701.341ZM716.216 366.874C714.002 366.874 712.043 366.312 710.341 365.188C708.65 364.065 707.326 362.512 706.369 360.532C705.412 358.54 704.933 356.242 704.933 353.639C704.933 351.013 705.412 348.704 706.369 346.712C707.326 344.709 708.65 343.152 710.341 342.039C712.043 340.915 714.002 340.353 716.216 340.353C718.43 340.353 720.383 340.915 722.074 342.039C723.766 343.163 725.09 344.721 726.047 346.712C727.015 348.704 727.499 351.013 727.499 353.639C727.499 356.242 727.02 358.54 726.063 360.532C725.106 362.512 723.777 364.065 722.074 365.188C720.383 366.312 718.43 366.874 716.216 366.874ZM716.216 364.154C717.996 364.154 719.504 363.675 720.739 362.718C721.974 361.761 722.909 360.487 723.543 358.896C724.188 357.305 724.511 355.553 724.511 353.639C724.511 351.725 724.188 349.967 723.543 348.365C722.909 346.762 721.974 345.477 720.739 344.509C719.504 343.541 717.996 343.057 716.216 343.057C714.447 343.057 712.939 343.541 711.693 344.509C710.458 345.477 709.518 346.762 708.872 348.365C708.238 349.967 707.921 351.725 707.921 353.639C707.921 355.553 708.238 357.305 708.872 358.896C709.518 360.487 710.458 361.761 711.693 362.718C712.928 363.675 714.436 364.154 716.216 364.154ZM747.273 366.34V340.704H766.683V366.34H763.696V343.508H750.26V366.34H747.273ZM774.549 375.954V340.704H777.436V345.594H777.787C778.143 344.826 778.632 344.042 779.255 343.241C779.878 342.428 780.702 341.744 781.726 341.188C782.76 340.631 784.062 340.353 785.631 340.353C787.745 340.353 789.592 340.91 791.172 342.022C792.763 343.124 793.999 344.67 794.878 346.662C795.768 348.643 796.213 350.952 796.213 353.589C796.213 356.237 795.768 358.557 794.878 360.549C793.999 362.54 792.763 364.092 791.172 365.205C789.592 366.318 787.756 366.874 785.664 366.874C784.118 366.874 782.822 366.596 781.776 366.04C780.741 365.483 779.901 364.799 779.255 363.987C778.621 363.163 778.132 362.362 777.787 361.583H777.52V375.954H774.549ZM777.486 353.539C777.486 355.608 777.792 357.444 778.404 359.046C779.027 360.638 779.917 361.889 781.075 362.802C782.243 363.703 783.656 364.154 785.314 364.154C787.016 364.154 788.452 363.686 789.62 362.752C790.8 361.806 791.695 360.532 792.307 358.93C792.93 357.327 793.242 355.53 793.242 353.539C793.242 351.569 792.936 349.794 792.324 348.214C791.723 346.634 790.833 345.383 789.653 344.459C788.474 343.524 787.028 343.057 785.314 343.057C783.645 343.057 782.226 343.508 781.058 344.409C779.89 345.299 778.999 346.534 778.387 348.114C777.787 349.683 777.486 351.491 777.486 353.539ZM809.89 366.924C808.344 366.924 806.931 366.624 805.651 366.023C804.372 365.411 803.353 364.532 802.597 363.386C801.84 362.229 801.462 360.827 801.462 359.18C801.462 357.911 801.701 356.843 802.18 355.975C802.658 355.107 803.337 354.395 804.216 353.839C805.095 353.283 806.135 352.843 807.337 352.52C808.539 352.198 809.863 351.947 811.309 351.769C812.745 351.591 813.957 351.436 814.948 351.302C815.949 351.169 816.711 350.957 817.234 350.668C817.757 350.379 818.019 349.911 818.019 349.266V348.665C818.019 346.918 817.496 345.544 816.45 344.543C815.415 343.53 813.924 343.024 811.977 343.024C810.13 343.024 808.622 343.43 807.454 344.242C806.297 345.054 805.484 346.011 805.017 347.113L802.196 346.095C802.775 344.693 803.576 343.574 804.6 342.74C805.623 341.894 806.769 341.288 808.038 340.921C809.306 340.542 810.591 340.353 811.893 340.353C812.872 340.353 813.891 340.481 814.948 340.737C816.016 340.993 817.006 341.438 817.919 342.072C818.831 342.695 819.571 343.569 820.138 344.693C820.706 345.805 820.99 347.219 820.99 348.932V366.34H818.019V362.284H817.835C817.479 363.041 816.951 363.775 816.25 364.487C815.549 365.2 814.669 365.784 813.612 366.24C812.555 366.696 811.315 366.924 809.89 366.924ZM810.291 364.204C811.871 364.204 813.24 363.853 814.397 363.152C815.554 362.451 816.444 361.522 817.067 360.365C817.702 359.197 818.019 357.911 818.019 356.509V352.804C817.796 353.016 817.423 353.205 816.9 353.372C816.389 353.539 815.793 353.689 815.115 353.822C814.447 353.945 813.779 354.05 813.112 354.139C812.444 354.228 811.843 354.306 811.309 354.373C809.863 354.551 808.628 354.829 807.604 355.208C806.58 355.586 805.796 356.109 805.251 356.777C804.705 357.433 804.433 358.279 804.433 359.313C804.433 360.871 804.989 362.078 806.102 362.935C807.214 363.781 808.611 364.204 810.291 364.204ZM828.892 366.34V340.704H838.99C841.716 340.704 843.864 341.293 845.433 342.473C847.013 343.652 847.803 345.243 847.803 347.246C847.803 348.771 847.363 349.989 846.484 350.902C845.605 351.814 844.426 352.459 842.946 352.838C843.936 353.005 844.854 353.366 845.7 353.922C846.556 354.479 847.252 355.213 847.786 356.126C848.32 357.038 848.587 358.128 848.587 359.397C848.587 360.732 848.253 361.923 847.586 362.969C846.918 364.015 845.978 364.838 844.765 365.439C843.552 366.04 842.117 366.34 840.459 366.34H828.892ZM831.73 363.586H840.459C842.028 363.586 843.268 363.186 844.181 362.384C845.093 361.572 845.549 360.493 845.549 359.147C845.549 357.711 845.115 356.565 844.248 355.708C843.391 354.84 842.239 354.406 840.793 354.406H831.73V363.586ZM831.73 351.769H839.174C840.331 351.769 841.332 351.591 842.178 351.235C843.024 350.879 843.675 350.379 844.131 349.733C844.598 349.077 844.826 348.309 844.815 347.43C844.815 346.173 844.303 345.199 843.28 344.509C842.256 343.808 840.826 343.458 838.99 343.458H831.73V351.769ZM862.261 366.924C860.714 366.924 859.301 366.624 858.021 366.023C856.742 365.411 855.724 364.532 854.967 363.386C854.21 362.229 853.832 360.827 853.832 359.18C853.832 357.911 854.071 356.843 854.55 355.975C855.028 355.107 855.707 354.395 856.586 353.839C857.465 353.283 858.505 352.843 859.707 352.52C860.909 352.198 862.233 351.947 863.679 351.769C865.115 351.591 866.327 351.436 867.318 351.302C868.319 351.169 869.081 350.957 869.604 350.668C870.127 350.379 870.389 349.911 870.389 349.266V348.665C870.389 346.918 869.866 345.544 868.82 344.543C867.785 343.53 866.294 343.024 864.347 343.024C862.5 343.024 860.992 343.43 859.824 344.242C858.667 345.054 857.854 346.011 857.387 347.113L854.566 346.095C855.145 344.693 855.946 343.574 856.97 342.74C857.993 341.894 859.14 341.288 860.408 340.921C861.676 340.542 862.962 340.353 864.263 340.353C865.243 340.353 866.261 340.481 867.318 340.737C868.386 340.993 869.376 341.438 870.289 342.072C871.201 342.695 871.941 343.569 872.508 344.693C873.076 345.805 873.36 347.219 873.36 348.932V366.34H870.389V362.284H870.205C869.849 363.041 869.321 363.775 868.62 364.487C867.919 365.2 867.04 365.784 865.983 366.24C864.926 366.696 863.685 366.924 862.261 366.924ZM862.661 364.204C864.241 364.204 865.61 363.853 866.767 363.152C867.924 362.451 868.814 361.522 869.437 360.365C870.072 359.197 870.389 357.911 870.389 356.509V352.804C870.166 353.016 869.794 353.205 869.271 353.372C868.759 353.539 868.163 353.689 867.485 353.822C866.817 353.945 866.149 354.05 865.482 354.139C864.814 354.228 864.213 354.306 863.679 354.373C862.233 354.551 860.998 354.829 859.974 355.208C858.95 355.586 858.166 356.109 857.621 356.777C857.075 357.433 856.803 358.279 856.803 359.313C856.803 360.871 857.359 362.078 858.472 362.935C859.585 363.781 860.981 364.204 862.661 364.204Z" fill="black"/>
<path d="M330.053 577.053V577.672H326.183V577.053H330.053ZM327.456 585.78V575.695C327.456 575.255 327.557 574.88 327.757 574.57C327.958 574.259 328.221 574.022 328.547 573.86C328.877 573.697 329.231 573.615 329.61 573.615C329.81 573.615 329.981 573.632 330.121 573.666C330.265 573.697 330.39 573.733 330.496 573.774L330.291 574.388C330.204 574.358 330.11 574.331 330.007 574.308C329.909 574.286 329.791 574.274 329.655 574.274C329.216 574.274 328.854 574.409 328.57 574.678C328.286 574.947 328.144 575.322 328.144 575.803L328.138 585.78H327.456ZM335.296 577.053V577.672H331.483V577.053H335.296ZM332.773 574.962H333.46V583.718C333.46 584.074 333.529 584.365 333.665 584.593C333.805 584.816 333.987 584.983 334.21 585.093C334.438 585.199 334.68 585.252 334.938 585.252C335.063 585.252 335.171 585.242 335.262 585.223C335.356 585.204 335.445 585.18 335.529 585.149L335.699 585.78C335.593 585.818 335.476 585.85 335.347 585.877C335.218 585.907 335.067 585.922 334.892 585.922C334.529 585.922 334.184 585.841 333.858 585.678C333.536 585.515 333.275 585.278 333.074 584.968C332.873 584.657 332.773 584.282 332.773 583.843V574.962ZM338.747 574.144V585.78H338.054V574.144H338.747ZM343.929 585.968C343.425 585.968 342.963 585.867 342.543 585.666C342.126 585.466 341.791 585.172 341.537 584.786C341.287 584.399 341.162 583.93 341.162 583.377C341.162 583.013 341.227 582.693 341.355 582.416C341.484 582.14 341.683 581.901 341.952 581.7C342.221 581.5 342.566 581.335 342.986 581.206C343.406 581.074 343.908 580.971 344.492 580.899C344.935 580.846 345.331 580.795 345.679 580.746C346.028 580.693 346.3 580.611 346.497 580.502C346.698 580.392 346.799 580.225 346.799 580.002V579.638C346.799 579.002 346.598 578.496 346.196 578.121C345.795 577.746 345.242 577.558 344.537 577.558C343.912 577.558 343.386 577.697 342.958 577.973C342.533 578.246 342.236 578.598 342.066 579.03L341.412 578.786C341.579 578.369 341.819 578.022 342.134 577.746C342.452 577.469 342.816 577.263 343.225 577.127C343.638 576.99 344.069 576.922 344.52 576.922C344.91 576.922 345.281 576.977 345.634 577.087C345.99 577.197 346.306 577.363 346.583 577.587C346.863 577.81 347.085 578.096 347.247 578.445C347.41 578.789 347.492 579.202 347.492 579.683V585.78H346.799V584.206H346.747C346.596 584.532 346.388 584.829 346.122 585.098C345.861 585.363 345.545 585.575 345.174 585.735C344.806 585.89 344.391 585.968 343.929 585.968ZM343.997 585.325C344.543 585.325 345.026 585.193 345.446 584.928C345.87 584.659 346.202 584.291 346.441 583.825C346.679 583.36 346.799 582.831 346.799 582.24V580.956C346.711 581.032 346.585 581.1 346.418 581.161C346.255 581.218 346.069 581.269 345.861 581.314C345.656 581.356 345.441 581.394 345.213 581.428C344.99 581.458 344.772 581.486 344.56 581.513C343.924 581.589 343.405 581.706 343.003 581.865C342.605 582.021 342.314 582.225 342.128 582.479C341.946 582.733 341.855 583.039 341.855 583.399C341.855 583.994 342.06 584.464 342.469 584.808C342.878 585.153 343.388 585.325 343.997 585.325ZM351.046 585.854C350.875 585.854 350.729 585.795 350.608 585.678C350.491 585.557 350.432 585.411 350.432 585.24C350.432 585.074 350.491 584.93 350.608 584.808C350.729 584.687 350.875 584.627 351.046 584.627C351.212 584.627 351.356 584.687 351.477 584.808C351.599 584.93 351.659 585.074 351.659 585.24C351.659 585.354 351.631 585.458 351.574 585.553C351.521 585.644 351.447 585.718 351.352 585.774C351.262 585.827 351.159 585.854 351.046 585.854ZM357.843 585.962C357.1 585.962 356.447 585.767 355.882 585.377C355.318 584.983 354.877 584.445 354.558 583.763C354.244 583.081 354.087 582.308 354.087 581.445C354.087 580.581 354.246 579.808 354.564 579.127C354.882 578.445 355.324 577.907 355.888 577.513C356.452 577.119 357.102 576.922 357.837 576.922C358.39 576.922 358.894 577.036 359.348 577.263C359.807 577.49 360.185 577.807 360.485 578.212C360.788 578.617 360.981 579.087 361.064 579.621H360.36C360.246 579.03 359.962 578.541 359.507 578.155C359.057 577.765 358.502 577.57 357.843 577.57C357.252 577.57 356.725 577.736 356.263 578.07C355.801 578.399 355.437 578.856 355.172 579.439C354.907 580.019 354.774 580.683 354.774 581.433C354.774 582.172 354.903 582.835 355.161 583.422C355.418 584.005 355.778 584.468 356.24 584.808C356.702 585.149 357.236 585.32 357.843 585.32C358.271 585.32 358.661 585.235 359.013 585.064C359.369 584.894 359.666 584.651 359.905 584.337C360.144 584.022 360.301 583.655 360.377 583.235H361.081C360.998 583.772 360.808 584.246 360.513 584.655C360.218 585.064 359.841 585.384 359.382 585.615C358.924 585.846 358.411 585.962 357.843 585.962ZM366.689 585.962C365.969 585.962 365.329 585.769 364.769 585.382C364.208 584.992 363.767 584.456 363.445 583.774C363.123 583.093 362.962 582.316 362.962 581.445C362.962 580.57 363.123 579.793 363.445 579.115C363.767 578.433 364.208 577.897 364.769 577.507C365.329 577.117 365.969 576.922 366.689 576.922C367.409 576.922 368.049 577.117 368.61 577.507C369.17 577.897 369.611 578.433 369.933 579.115C370.255 579.797 370.416 580.574 370.416 581.445C370.416 582.316 370.255 583.093 369.933 583.774C369.611 584.456 369.17 584.992 368.61 585.382C368.049 585.769 367.409 585.962 366.689 585.962ZM366.689 585.32C367.299 585.32 367.831 585.147 368.286 584.803C368.744 584.458 369.098 583.992 369.348 583.405C369.602 582.818 369.729 582.164 369.729 581.445C369.729 580.725 369.602 580.074 369.348 579.49C369.094 578.903 368.74 578.437 368.286 578.093C367.831 577.744 367.299 577.57 366.689 577.57C366.079 577.57 365.547 577.744 365.093 578.093C364.638 578.437 364.284 578.903 364.03 579.49C363.776 580.074 363.649 580.725 363.649 581.445C363.649 582.164 363.774 582.818 364.024 583.405C364.278 583.992 364.632 584.458 365.087 584.803C365.545 585.147 366.079 585.32 366.689 585.32ZM372.804 585.78V577.053H373.48V578.371H373.549C373.715 577.932 374.003 577.583 374.412 577.325C374.821 577.068 375.314 576.939 375.889 576.939C376.522 576.939 377.031 577.091 377.418 577.394C377.808 577.697 378.088 578.108 378.259 578.627H378.321C378.492 578.115 378.797 577.706 379.236 577.399C379.679 577.093 380.225 576.939 380.872 576.939C381.717 576.939 382.361 577.206 382.804 577.74C383.251 578.271 383.475 578.998 383.475 579.922V585.78H382.781V579.922C382.781 579.195 382.607 578.623 382.259 578.206C381.91 577.789 381.399 577.581 380.725 577.581C380.005 577.581 379.452 577.807 379.066 578.257C378.679 578.708 378.486 579.282 378.486 579.979V585.78H377.793V579.877C377.793 579.199 377.622 578.647 377.281 578.223C376.941 577.795 376.429 577.581 375.747 577.581C375.285 577.581 374.886 577.687 374.549 577.899C374.215 578.111 373.956 578.403 373.77 578.774C373.588 579.146 373.497 579.572 373.497 580.053V585.78H372.804ZM386.999 585.854C386.828 585.854 386.683 585.795 386.561 585.678C386.444 585.557 386.385 585.411 386.385 585.24C386.385 585.074 386.444 584.93 386.561 584.808C386.683 584.687 386.828 584.627 386.999 584.627C387.165 584.627 387.309 584.687 387.431 584.808C387.552 584.93 387.612 585.074 387.612 585.24C387.612 585.354 387.584 585.458 387.527 585.553C387.474 585.644 387.4 585.718 387.306 585.774C387.215 585.827 387.112 585.854 386.999 585.854ZM396.114 582.683V577.053H396.807V585.78H396.114V584.365H396.057C395.852 584.816 395.521 585.183 395.063 585.468C394.608 585.752 394.07 585.894 393.449 585.894C392.877 585.894 392.371 585.769 391.932 585.519C391.493 585.269 391.148 584.914 390.898 584.456C390.648 583.994 390.523 583.445 390.523 582.808V577.053H391.216V582.78C391.216 583.507 391.436 584.096 391.875 584.547C392.318 584.994 392.89 585.218 393.591 585.218C394.046 585.218 394.464 585.115 394.847 584.911C395.229 584.706 395.536 584.414 395.767 584.036C395.998 583.653 396.114 583.202 396.114 582.683ZM401.992 585.968C401.488 585.968 401.026 585.867 400.605 585.666C400.189 585.466 399.853 585.172 399.6 584.786C399.35 584.399 399.225 583.93 399.225 583.377C399.225 583.013 399.289 582.693 399.418 582.416C399.547 582.14 399.745 581.901 400.014 581.7C400.283 581.5 400.628 581.335 401.049 581.206C401.469 581.074 401.971 580.971 402.554 580.899C402.997 580.846 403.393 580.795 403.742 580.746C404.09 580.693 404.363 580.611 404.56 580.502C404.761 580.392 404.861 580.225 404.861 580.002V579.638C404.861 579.002 404.66 578.496 404.259 578.121C403.857 577.746 403.304 577.558 402.6 577.558C401.975 577.558 401.448 577.697 401.02 577.973C400.596 578.246 400.299 578.598 400.128 579.03L399.475 578.786C399.641 578.369 399.882 578.022 400.196 577.746C400.514 577.469 400.878 577.263 401.287 577.127C401.7 576.99 402.132 576.922 402.583 576.922C402.973 576.922 403.344 576.977 403.696 577.087C404.052 577.197 404.369 577.363 404.645 577.587C404.925 577.81 405.147 578.096 405.31 578.445C405.473 578.789 405.554 579.202 405.554 579.683V585.78H404.861V584.206H404.81C404.658 584.532 404.45 584.829 404.185 585.098C403.924 585.363 403.607 585.575 403.236 585.735C402.869 585.89 402.454 585.968 401.992 585.968ZM402.06 585.325C402.605 585.325 403.088 585.193 403.509 584.928C403.933 584.659 404.264 584.291 404.503 583.825C404.742 583.36 404.861 582.831 404.861 582.24V580.956C404.774 581.032 404.647 581.1 404.48 581.161C404.317 581.218 404.132 581.269 403.924 581.314C403.719 581.356 403.503 581.394 403.276 581.428C403.052 581.458 402.835 581.486 402.622 581.513C401.986 581.589 401.467 581.706 401.066 581.865C400.668 582.021 400.376 582.225 400.191 582.479C400.009 582.733 399.918 583.039 399.918 583.399C399.918 583.994 400.122 584.464 400.531 584.808C400.941 585.153 401.45 585.325 402.06 585.325Z" fill="black"/>
</svg>
