<svg width="105" height="40" viewBox="0 0 105 40" fill="none" xmlns="http://www.w3.org/2000/svg">
<path d="M0 39.672H1.13972V35.8456H5.22063V34.9266H1.13972V32.036H5.64343V31.117H0V39.672Z" fill="black"/>
<path d="M7.08071 32.036H10.0403V39.672H11.18V32.036H14.1396V31.117H7.08071V32.036Z" fill="black"/>
<path d="M15.8986 39.672H21.4133V38.753H17.0383V31.117H15.8986V39.672Z" fill="black"/>
<path d="M27.2038 39.672L28.1505 37.2492H31.9557L32.9024 39.672H34.0973L30.6414 31.117H29.4649L26.009 39.672H27.2038ZM28.509 36.3302L30.0163 32.4704H30.0899L31.5972 36.3302H28.509Z" fill="black"/>
<path d="M40.7104 33.2557H41.8133C41.7628 31.9649 40.453 31 38.6332 31C36.8317 31 35.4162 31.9524 35.4162 33.3894C35.4162 34.5423 36.3353 35.2274 37.8059 35.6117L38.964 35.9125C39.9567 36.1631 40.8391 36.4806 40.8391 37.3327C40.8391 38.2684 39.8464 38.8867 38.5412 38.8867C37.4199 38.8867 36.4273 38.4355 36.3353 37.4664H35.1589C35.2692 38.8699 36.5192 39.8224 38.5412 39.8224C40.7104 39.8224 41.942 38.7363 41.942 37.3494C41.942 35.7454 40.2692 35.2274 39.2949 34.9935L38.339 34.7595C37.6405 34.5924 36.5192 34.2583 36.5192 33.3393C36.5192 32.5205 37.3464 31.919 38.5964 31.919C39.7361 31.919 40.6001 32.4119 40.7104 33.2557Z" fill="black"/>
<path d="M48.963 33.2557H50.0659C50.0154 31.9649 48.7056 31 46.8858 31C45.0843 31 43.6688 31.9524 43.6688 33.3894C43.6688 34.5423 44.5879 35.2274 46.0585 35.6117L47.2166 35.9125C48.2093 36.1631 49.0917 36.4806 49.0917 37.3327C49.0917 38.2684 48.099 38.8867 46.7938 38.8867C45.6725 38.8867 44.6799 38.4355 44.5879 37.4664H43.4115C43.5218 38.8699 44.7718 39.8224 46.7938 39.8224C48.963 39.8224 50.1946 38.7363 50.1946 37.3494C50.1946 35.7454 48.5218 35.2274 47.5475 34.9935L46.5916 34.7595C45.8931 34.5924 44.7718 34.2583 44.7718 33.3393C44.7718 32.5205 45.599 31.919 46.849 31.919C47.9887 31.919 48.8527 32.4119 48.963 33.2557Z" fill="black"/>
<path d="M53.2082 31.117H52.0685V39.672H53.2082V31.117Z" fill="black"/>
<path d="M60.6405 33.2557H61.7434C61.6929 31.9649 60.3831 31 58.5632 31C56.7618 31 55.3463 31.9524 55.3463 33.3894C55.3463 34.5423 56.2654 35.2274 57.736 35.6117L58.8941 35.9125C59.8868 36.1631 60.7691 36.4806 60.7691 37.3327C60.7691 38.2684 59.7765 38.8867 58.4713 38.8867C57.35 38.8867 56.3573 38.4355 56.2654 37.4664H55.089C55.1992 38.8699 56.4493 39.8224 58.4713 39.8224C60.6405 39.8224 61.8721 38.7363 61.8721 37.3494C61.8721 35.7454 60.1993 35.2274 59.225 34.9935L58.2691 34.7595C57.5706 34.5924 56.4493 34.2583 56.4493 33.3393C56.4493 32.5205 57.2765 31.919 58.5265 31.919C59.6662 31.919 60.5302 32.4119 60.6405 33.2557Z" fill="black"/>
<path d="M63.2313 32.036H66.1908V39.672H67.3306V32.036H70.2901V31.117H63.2313V32.036Z" fill="black"/>
<path d="M71.3356 39.672L72.2823 37.2492H76.0875L77.0342 39.672H78.2291L74.7732 31.117H73.5967L70.1408 39.672H71.3356ZM72.6408 36.3302L74.1482 32.4704H74.2217L75.7291 36.3302H72.6408Z" fill="black"/>
<path d="M87.1584 31.117H86.0371V37.8507H85.9452L80.798 31.117H79.6951V39.672H80.8348V32.955H80.9267L86.0554 39.672H87.1584V31.117Z" fill="black"/>
<path d="M97.0126 33.7904C96.6633 32.036 95.1192 31 93.2258 31C90.8177 31 89.0713 32.6876 89.0713 35.3945C89.0713 38.1013 90.8177 39.7889 93.2258 39.7889C95.1192 39.7889 96.6633 38.753 97.0126 36.9985H95.8729C95.5971 38.1849 94.4758 38.8198 93.2258 38.8198C91.5162 38.8198 90.1743 37.6168 90.1743 35.3945C90.1743 33.1722 91.5162 31.9691 93.2258 31.9691C94.4758 31.9691 95.5971 32.6041 95.8729 33.7904H97.0126Z" fill="black"/>
<path d="M98.8543 39.672H104.608V38.753H99.994V35.8456H104.24V34.9266H99.994V32.036H104.534V31.117H98.8543V39.672Z" fill="black"/>
<rect y="8.47992" width="4.62541" height="13.1053" rx="2.3127" fill="#404E4D"/>
<rect x="8.22314" y="2.5697" width="4.62541" height="20.8143" rx="2.3127" fill="#9AAD7D"/>
<rect x="24.4116" width="4.62541" height="18.7586" rx="2.3127" fill="#9CA585"/>
<rect x="32.3779" y="7.19507" width="4.62541" height="16.1889" rx="2.3127" fill="#C6CA8B"/>
<rect x="16.189" y="4.62543" width="4.62541" height="14.1332" rx="2.3127" fill="#647065"/>
</svg>
