<svg width="150" height="24" viewBox="0 0 150 24" fill="none" xmlns="http://www.w3.org/2000/svg">
<path d="M45.3721 15.8817H46.5118V12.0553H50.5927V11.1363H46.5118V8.24565H51.0155V7.32665H45.3721V15.8817Z" fill="black"/>
<path d="M52.4528 8.24565H55.4124V15.8817H56.5521V8.24565H59.5117V7.32665H52.4528V8.24565Z" fill="black"/>
<path d="M61.2706 15.8817H66.7854V14.9627H62.4104V7.32665H61.2706V15.8817Z" fill="black"/>
<path d="M72.5759 15.8817L73.5226 13.4589H77.3278L78.2745 15.8817H79.4693L76.0134 7.32665H74.8369L71.381 15.8817H72.5759ZM73.8811 12.5399L75.3884 8.68008H75.4619L76.9693 12.5399H73.8811Z" fill="black"/>
<path d="M86.0824 9.4654H87.1854C87.1348 8.17463 85.8251 7.20969 84.0052 7.20969C82.2037 7.20969 80.7883 8.1621 80.7883 9.59908C80.7883 10.752 81.7074 11.4371 83.178 11.8214L84.3361 12.1221C85.3288 12.3728 86.2111 12.6902 86.2111 13.5424C86.2111 14.4781 85.2185 15.0963 83.9133 15.0963C82.792 15.0963 81.7993 14.6452 81.7074 13.6761H80.5309C80.6412 15.0796 81.8912 16.032 83.9133 16.032C86.0824 16.032 87.3141 14.946 87.3141 13.5591C87.3141 11.955 85.6413 11.4371 84.667 11.2031L83.7111 10.9692C83.0126 10.8021 81.8912 10.4679 81.8912 9.54895C81.8912 8.73021 82.7184 8.12868 83.9685 8.12868C85.1082 8.12868 85.9722 8.6216 86.0824 9.4654Z" fill="black"/>
<path d="M94.335 9.4654H95.438C95.3874 8.17463 94.0777 7.20969 92.2578 7.20969C90.4563 7.20969 89.0409 8.1621 89.0409 9.59908C89.0409 10.752 89.96 11.4371 91.4306 11.8214L92.5887 12.1221C93.5814 12.3728 94.4637 12.6902 94.4637 13.5424C94.4637 14.4781 93.4711 15.0963 92.1659 15.0963C91.0446 15.0963 90.0519 14.6452 89.96 13.6761H88.7835C88.8938 15.0796 90.1438 16.032 92.1659 16.032C94.335 16.032 95.5667 14.946 95.5667 13.5591C95.5667 11.955 93.8939 11.4371 92.9196 11.2031L91.9637 10.9692C91.2652 10.8021 90.1438 10.4679 90.1438 9.54895C90.1438 8.73021 90.971 8.12868 92.2211 8.12868C93.3608 8.12868 94.2248 8.6216 94.335 9.4654Z" fill="black"/>
<path d="M98.5803 7.32665H97.4405V15.8817H98.5803V7.32665Z" fill="black"/>
<path d="M106.013 9.4654H107.115C107.065 8.17463 105.755 7.20969 103.935 7.20969C102.134 7.20969 100.718 8.1621 100.718 9.59908C100.718 10.752 101.638 11.4371 103.108 11.8214L104.266 12.1221C105.259 12.3728 106.141 12.6902 106.141 13.5424C106.141 14.4781 105.149 15.0963 103.843 15.0963C102.722 15.0963 101.729 14.6452 101.638 13.6761H100.461C100.571 15.0796 101.821 16.032 103.843 16.032C106.013 16.032 107.244 14.946 107.244 13.5591C107.244 11.955 105.571 11.4371 104.597 11.2031L103.641 10.9692C102.943 10.8021 101.821 10.4679 101.821 9.54895C101.821 8.73021 102.649 8.12868 103.899 8.12868C105.038 8.12868 105.902 8.6216 106.013 9.4654Z" fill="black"/>
<path d="M108.603 8.24565H111.563V15.8817H112.703V8.24565H115.662V7.32665H108.603V8.24565Z" fill="black"/>
<path d="M116.708 15.8817L117.654 13.4589H121.46L122.406 15.8817H123.601L120.145 7.32665H118.969L115.513 15.8817H116.708ZM118.013 12.5399L119.52 8.68008H119.594L121.101 12.5399H118.013Z" fill="black"/>
<path d="M132.53 7.32665H131.409V14.0604H131.317L126.17 7.32665H125.067V15.8817H126.207V9.16464H126.299L131.428 15.8817H132.53V7.32665Z" fill="black"/>
<path d="M142.385 10.0001C142.035 8.24565 140.491 7.20969 138.598 7.20969C136.19 7.20969 134.443 8.8973 134.443 11.6042C134.443 14.311 136.19 15.9986 138.598 15.9986C140.491 15.9986 142.035 14.9627 142.385 13.2082H141.245C140.969 14.3946 139.848 15.0295 138.598 15.0295C136.888 15.0295 135.546 13.8265 135.546 11.6042C135.546 9.38186 136.888 8.17881 138.598 8.17881C139.848 8.17881 140.969 8.81375 141.245 10.0001H142.385Z" fill="black"/>
<path d="M144.226 15.8817H149.98V14.9627H145.366V12.0553H149.612V11.1363H145.366V8.24565H149.907V7.32665H144.226V15.8817Z" fill="black"/>
<rect y="8.47992" width="4.62541" height="13.1053" rx="2.3127" fill="#404E4D"/>
<rect x="8.22314" y="2.56967" width="4.62541" height="20.8143" rx="2.3127" fill="#9AAD7D"/>
<rect x="24.4116" width="4.62541" height="18.7586" rx="2.3127" fill="#9CA585"/>
<rect x="32.3779" y="7.19507" width="4.62541" height="16.1889" rx="2.3127" fill="#C6CA8B"/>
<rect x="16.189" y="4.62543" width="4.62541" height="14.1332" rx="2.3127" fill="#647065"/>
</svg>
